<svg width="960" height="640" viewBox="0 0 960 640" fill="none" xmlns="http://www.w3.org/2000/svg">
<rect width="960" height="640" rx="48" fill="#F2ECE4"/>
<rect x="44" y="44" width="872" height="552" rx="36" fill="url(#bg)"/>
<circle cx="748" cy="168" r="88" fill="#E8E0D0"/>
<circle cx="208" cy="490" r="110" fill="#D8E2D2"/>
<path d="M236 338C236 237.485 317.485 156 418 156H542C642.515 156 724 237.485 724 338V366C724 466.515 642.515 548 542 548H418C317.485 548 236 466.515 236 366V338Z" fill="#FFFDF8"/>
<path d="M354 286C380.667 261.333 413.667 249 453 249C472.762 249 490.762 252.373 507 259.119" stroke="#3F312B" stroke-width="15" stroke-linecap="round"/>
<path d="M607 286C580.333 261.333 547.333 249 508 249C488.238 249 470.238 252.373 454 259.119" stroke="#3F312B" stroke-width="15" stroke-linecap="round"/>
<circle cx="408" cy="354" r="28" fill="#3F312B"/>
<circle cx="552" cy="354" r="28" fill="#3F312B"/>
<path d="M430 444C458.928 461.214 501.072 461.214 530 444" stroke="#C9857A" stroke-width="10" stroke-linecap="round"/>
<rect x="104" y="454" width="252" height="92" rx="24" fill="#FFFDF8"/>
<text x="136" y="492" fill="#3F312B" font-family="Arial, sans-serif" font-size="22" font-weight="700">Eyebrow Transplant</text>
<text x="136" y="522" fill="#6E645F" font-family="Arial, sans-serif" font-size="18">Shape, arch and soft detail</text>
<defs>
<linearGradient id="bg" x1="130" y1="90" x2="832" y2="562" gradientUnits="userSpaceOnUse">
<stop stop-color="#F5F0E8"/>
<stop offset="1" stop-color="#E7EEE2"/>
</linearGradient>
</defs>
</svg>
